<?xml version="1.0" standalone="no"?>
<!DOCTYPE svg PUBLIC "-//W3C//DTD SVG 20010904//EN"
 "http://www.w3.org/TR/2001/REC-SVG-20010904/DTD/svg10.dtd">
<svg version="1.0" xmlns="http://www.w3.org/2000/svg"
 width="700.000000pt" height="700.000000pt" viewBox="0 0 700.000000 700.000000"
 preserveAspectRatio="xMidYMid meet">
<metadata>
Created by potrace 1.14, written by Peter Selinger 2001-2017
</metadata>
<g transform="translate(0.000000,700.000000) scale(0.100000,-0.100000)"
fill="#000000" stroke="none">
<path d="M3278 6996 c-1 -2 -39 -6 -83 -10 -569 -44 -1172 -258 -1660 -590
-103 -70 -87 -58 -230 -171 -415 -331 -787 -810 -990 -1275 -25 -58 -50 -114
-55 -125 -45 -93 -150 -427 -176 -560 -2 -11 -10 -54 -19 -95 -29 -147 -35
-193 -52 -370 -15 -163 -8 -592 12 -711 2 -13 6 -46 9 -74 21 -182 109 -546
165 -680 5 -11 29 -74 55 -141 55 -142 169 -372 246 -497 30 -48 60 -95 65
-105 39 -68 238 -330 314 -412 243 -262 432 -425 688 -596 77 -52 145 -94 149
-94 4 0 15 -6 23 -14 26 -22 298 -158 411 -205 267 -111 589 -200 859 -237 25
-3 57 -8 71 -10 163 -25 682 -25 842 1 13 2 46 7 73 10 72 10 86 12 120 19 17
3 44 8 60 11 343 65 740 212 1039 384 49 28 90 51 92 51 2 0 58 36 124 81 259
174 486 370 680 588 36 41 70 79 76 85 65 68 263 353 352 508 47 80 182 351
182 364 0 3 8 24 19 47 53 118 147 417 177 562 17 81 54 301 59 350 4 33 9 71
11 85 9 47 11 525 3 605 -15 165 -21 220 -24 225 -2 3 -6 30 -10 60 -3 30 -10
71 -15 90 -5 19 -12 51 -15 70 -13 75 -67 275 -106 392 -320 954 -1046 1734
-1974 2120 -242 100 -571 194 -785 223 -19 3 -46 7 -60 10 -13 2 -52 7 -86 11
-33 3 -74 8 -90 10 -32 5 -540 14 -546 10z m512 -709 c19 -3 60 -8 90 -12 358
-45 781 -198 1100 -399 111 -69 230 -155 230 -164 0 -4 -882 -889 -1960 -1967
-1712 -1712 -1961 -1958 -1974 -1945 -53 56 -206 300 -281 449 -110 220 -211
516 -249 736 -32 182 -41 295 -41 515 0 236 7 330 40 500 8 41 17 89 19 105 9
48 65 243 96 330 172 490 492 936 903 1263 79 62 269 192 342 232 72 40 249
127 300 148 28 11 75 30 105 42 167 68 457 138 680 164 118 13 509 15 600 3z
m1977 -1144 c112 -157 164 -244 248 -417 100 -205 192 -468 221 -634 3 -15 10
-47 15 -72 6 -25 13 -63 15 -85 3 -22 7 -51 10 -65 13 -73 19 -196 19 -375 0
-179 -4 -261 -20 -375 -11 -85 -16 -110 -31 -180 -3 -14 -7 -36 -10 -50 -20
-102 -108 -386 -125 -404 -5 -6 -9 -16 -9 -24 0 -20 -107 -245 -168 -351 -168
-294 -425 -598 -662 -781 -25 -19 -54 -43 -65 -53 -11 -10 -45 -35 -75 -55
-30 -20 -57 -39 -60 -42 -27 -32 -351 -207 -490 -265 -105 -43 -287 -106 -350
-120 -8 -2 -42 -10 -75 -18 -54 -14 -173 -37 -265 -51 -131 -21 -527 -29 -665
-14 -496 55 -953 226 -1348 507 -48 34 -87 65 -87 69 0 9 3913 3922 3922 3922
3 0 28 -30 55 -67z"/>
<path d="M2638 5877 c-42 -21 -75 -66 -81 -112 -2 -16 10 -81 26 -145 16 -63
30 -122 32 -130 2 -8 15 -62 30 -120 15 -58 28 -112 30 -120 2 -8 56 -224 120
-480 64 -256 118 -472 120 -480 2 -8 15 -62 30 -120 17 -66 25 -119 22 -143
-6 -46 -42 -101 -77 -118 -39 -19 -830 -20 -870 -1 -26 13 -67 53 -144 143
-27 31 -142 162 -219 250 -18 19 -59 66 -92 104 -86 98 -93 105 -128 120 -75
31 -172 -14 -197 -91 -10 -30 -9 -64 5 -134 3 -14 12 -65 21 -115 8 -49 17
-92 19 -95 1 -3 6 -27 9 -55 4 -27 9 -59 11 -70 3 -11 7 -33 10 -50 12 -61 46
-252 57 -310 15 -87 14 -109 -12 -240 -11 -54 -72 -387 -96 -525 -8 -47 -17
-96 -20 -110 -16 -93 -16 -99 5 -144 17 -33 33 -50 65 -65 94 -46 133 -27 267
128 35 41 71 82 79 91 8 9 42 47 75 85 76 87 126 144 195 224 82 94 82 94 312
95 l197 0 705 706 705 705 -105 170 c-58 94 -151 243 -207 332 -56 90 -173
277 -259 415 -285 458 -246 422 -457 423 -122 0 -151 -2 -183 -18z"/>
<path d="M3666 2960 l-934 -935 -88 -355 c-49 -195 -88 -369 -87 -387 2 -44
27 -87 65 -115 31 -21 43 -23 182 -24 82 -1 162 3 177 8 16 5 41 24 57 42 15
18 201 309 411 647 211 338 398 637 416 664 18 28 105 167 194 310 89 143 170
268 179 278 46 51 31 50 717 52 703 2 675 0 769 64 97 67 153 164 162 285 13
164 -85 316 -244 377 -56 21 -70 22 -550 23 l-492 1 -934 -935z"/>
</g>
</svg>
